<svg version="1.1" id="Layer_1" xmlns="http://www.w3.org/2000/svg" xmlns:xlink="http://www.w3.org/1999/xlink" x="0px" y="0px"
	 width="100%" viewBox="0 0 299 271" enable-background="new 0 0 299 271" xml:space="preserve">
<path fill="#366996" opacity="1.000000" stroke="none" 
	d="
M1.000000,68.000000 
	C1.000000,59.645767 1.000000,51.291534 1.468657,42.468662 
	C15.676011,41.838478 29.414906,41.531055 43.153358,41.549751 
	C63.497211,41.577438 83.840950,41.814762 104.184372,42.003208 
	C124.422562,42.190681 144.659973,42.468346 164.898346,42.627598 
	C176.149475,42.716129 187.402237,42.704838 198.653580,42.631634 
	C225.879562,42.454498 253.105118,42.212780 280.330902,42.004715 
	C281.994324,41.992001 283.664673,42.150440 285.320709,42.048645 
	C290.216797,41.747696 295.107300,41.356121 300.000000,41.000000 
	C300.000000,49.354233 300.000000,57.708466 299.531342,66.531349 
	C290.419922,66.793068 281.776459,66.390556 273.134552,66.421875 
	C257.449615,66.478706 241.764206,66.721512 226.081818,67.030365 
	C217.806961,67.193329 209.536057,67.975967 201.266953,67.922523 
	C184.193237,67.812180 167.122971,67.222298 150.049072,67.054588 
	C143.674973,66.991974 137.292770,67.828293 130.917648,67.782501 
	C114.502914,67.664627 98.090393,67.187859 81.676033,67.130577 
	C79.695930,67.123665 77.709908,68.815659 75.297897,69.737221 
	C68.301994,69.857887 61.734821,69.961578 54.773354,69.908447 
	C47.318619,69.495186 40.258915,69.216248 33.197582,68.987595 
	C22.465651,68.640068 11.732585,68.327446 1.000000,68.000000 
z"/>
<path fill="#265278" opacity="1.000000" stroke="none" 
	d="
M1.000000,253.000000 
	C1.000000,246.978851 1.000000,240.957703 1.409825,234.471130 
	C7.049562,233.670563 12.277330,233.092621 17.509790,233.046448 
	C32.405983,232.914993 47.304081,232.999420 62.201431,233.000580 
	C71.059059,233.001266 79.918877,232.886078 88.773575,233.048523 
	C94.894844,233.160797 101.011932,233.977020 107.125862,233.921890 
	C123.085358,233.777954 139.041000,233.195099 155.000458,233.063614 
	C161.630020,233.009003 168.267670,233.967834 174.897583,233.918762 
	C186.952133,233.829544 199.002563,233.143845 211.056854,233.073273 
	C218.450882,233.029984 225.850754,233.975494 233.244705,233.930618 
	C245.735336,233.854828 258.222748,233.124298 270.712646,233.089661 
	C280.474182,233.062592 290.237488,233.672913 300.000000,234.000000 
	C300.000000,240.354401 300.000000,246.708786 299.547455,253.531586 
	C292.808746,253.524063 286.524567,252.678802 280.236053,252.645645 
	C265.042572,252.565521 249.847366,252.926193 234.652328,252.994049 
	C218.248978,253.067322 201.844727,252.952393 185.441574,253.045868 
	C180.809982,253.072250 176.180664,253.755005 171.550751,253.749573 
	C166.581665,253.743744 161.615372,253.126831 156.643784,253.053436 
	C147.889832,252.924210 139.131775,252.920609 130.377304,253.023117 
	C122.159721,253.119293 113.943375,253.604446 105.728821,253.552109 
	C101.801689,253.527069 97.867416,252.154312 93.957985,252.252457 
	C78.008392,252.652847 62.071369,253.610825 46.121216,253.909836 
	C36.858311,254.083466 27.580589,253.340607 18.306980,253.115326 
	C12.540456,252.975220 6.769156,253.031738 1.000000,253.000000 
z"/>
<path fill="#386B99" opacity="1.000000" stroke="none" 
	d="
M300.000000,40.532059 
	C295.107300,41.356121 290.216797,41.747696 285.320709,42.048645 
	C283.664673,42.150440 281.994324,41.992001 280.330902,42.004715 
	C253.105118,42.212780 225.879562,42.454498 198.653580,42.631634 
	C187.402237,42.704838 176.149475,42.716129 164.898346,42.627598 
	C144.659973,42.468346 124.422562,42.190681 104.184372,42.003208 
	C83.840950,41.814762 63.497211,41.577438 43.153358,41.549751 
	C29.414906,41.531055 15.676011,41.838478 1.468657,42.000011 
	C1.000000,35.978848 1.000000,29.957697 1.424704,23.467552 
	C11.922457,22.994097 21.996630,22.894936 32.068203,23.014647 
	C40.370026,23.113321 48.673439,23.766504 56.967628,23.635357 
	C66.174614,23.489780 75.368797,22.417353 84.574303,22.325871 
	C95.166245,22.220608 105.763535,22.902605 116.360168,22.966358 
	C135.912033,23.083994 155.465378,22.942158 175.017563,23.028059 
	C182.995956,23.063112 190.976501,23.669304 198.949875,23.560677 
	C215.762573,23.331621 232.569733,22.564968 249.381851,22.463144 
	C266.252869,22.360964 283.127167,22.798820 300.000000,23.000000 
	C300.000000,28.688040 300.000000,34.376080 300.000000,40.532059 
z"/>
<path fill="#244F74" opacity="1.000000" stroke="none" 
	d="
M1.000000,253.469376 
	C6.769156,253.031738 12.540456,252.975220 18.306980,253.115326 
	C27.580589,253.340607 36.858311,254.083466 46.121216,253.909836 
	C62.071369,253.610825 78.008392,252.652847 93.957985,252.252457 
	C97.867416,252.154312 101.801689,253.527069 105.728821,253.552109 
	C113.943375,253.604446 122.159721,253.119293 130.377304,253.023117 
	C139.131775,252.920609 147.889832,252.924210 156.643784,253.053436 
	C161.615372,253.126831 166.581665,253.743744 171.550751,253.749573 
	C176.180664,253.755005 180.809982,253.072250 185.441574,253.045868 
	C201.844727,252.952393 218.248978,253.067322 234.652328,252.994049 
	C249.847366,252.926193 265.042572,252.565521 280.236053,252.645645 
	C286.524567,252.678802 292.808746,253.524063 299.547455,254.000000 
	C300.000000,259.992157 300.000000,265.984314 300.000000,271.957581 
	C200.333328,271.957581 100.666656,271.957581 1.000000,271.957581 
	C1.000000,265.923035 1.000000,259.930878 1.000000,253.469376 
z"/>
<path fill="#336591" opacity="1.000000" stroke="none" 
	d="
M75.726631,69.720245 
	C77.709908,68.815659 79.695930,67.123665 81.676033,67.130577 
	C98.090393,67.187859 114.502914,67.664627 130.917648,67.782501 
	C137.292770,67.828293 143.674973,66.991974 150.049072,67.054588 
	C167.122971,67.222298 184.193237,67.812180 201.266953,67.922523 
	C209.536057,67.975967 217.806961,67.193329 226.081818,67.030365 
	C241.764206,66.721512 257.449615,66.478706 273.134552,66.421875 
	C281.776459,66.390556 290.419922,66.793068 299.531342,67.000000 
	C300.000000,75.020897 300.000000,83.041801 299.576752,91.527847 
	C285.782074,91.980568 272.410583,91.979790 259.039185,91.950676 
	C252.574631,91.936600 246.108398,91.949539 239.646149,91.805206 
	C232.066193,91.635895 224.490540,91.127396 216.911606,91.095024 
	C206.874893,91.052147 196.836197,91.293594 186.799637,91.482124 
	C182.034302,91.571648 177.273026,91.918747 172.507965,91.971085 
	C167.905273,92.021652 163.300262,91.793144 158.695938,91.775963 
	C149.224670,91.740616 139.753174,91.762016 130.281769,91.764633 
	C119.062737,91.767731 107.837784,91.998741 96.626785,91.701439 
	C89.400307,91.509789 82.194298,90.545937 75.103104,89.583855 
	C76.907059,83.335831 78.587044,77.432114 80.269356,71.520210 
	C78.422653,70.788498 77.074646,70.254372 75.726631,69.720245 
z"/>
<path fill="#27547B" opacity="1.000000" stroke="none" 
	d="
M300.000000,233.532394 
	C290.237488,233.672913 280.474182,233.062592 270.712646,233.089661 
	C258.222748,233.124298 245.735336,233.854828 233.244705,233.930618 
	C225.850754,233.975494 218.450882,233.029984 211.056854,233.073273 
	C199.002563,233.143845 186.952133,233.829544 174.897583,233.918762 
	C168.267670,233.967834 161.630020,233.009003 155.000458,233.063614 
	C139.041000,233.195099 123.085358,233.777954 107.125862,233.921890 
	C101.011932,233.977020 94.894844,233.160797 88.773575,233.048523 
	C79.918877,232.886078 71.059059,233.001266 62.201431,233.000580 
	C47.304081,232.999420 32.405983,232.914993 17.509790,233.046448 
	C12.277330,233.092621 7.049562,233.670563 1.409825,234.002838 
	C1.000000,228.977905 1.000000,223.955811 1.437441,218.465912 
	C5.678512,217.665207 9.479547,217.085220 13.286255,217.045227 
	C25.179659,216.920258 37.075260,217.018860 48.969891,216.986603 
	C52.273499,216.977646 55.576168,216.769119 58.880169,216.731995 
	C67.727310,216.632553 76.574875,216.568085 85.422424,216.514801 
	C86.398666,216.508926 87.374435,216.704681 88.352859,216.740494 
	C95.227310,216.992004 102.101753,217.386841 108.977486,217.414352 
	C114.377548,217.435974 119.784653,216.724274 125.179298,216.827225 
	C132.981125,216.976105 140.770935,217.772156 148.572556,217.908188 
	C155.649277,218.031601 162.734238,217.583542 169.816910,217.494019 
	C176.683395,217.407242 183.554642,217.581146 190.418289,217.413986 
	C199.088272,217.202835 207.836441,215.853378 216.399048,216.642471 
	C228.054337,217.716568 239.514175,218.117981 251.010178,215.741608 
	C251.861542,215.565613 252.856506,216.211273 253.803085,216.345505 
	C256.820953,216.773529 259.845734,217.449448 262.871094,217.467010 
	C269.306946,217.504379 275.743958,217.127686 282.182159,217.033035 
	C288.120331,216.945709 294.060638,217.005173 300.000000,217.000000 
	C300.000000,222.354935 300.000000,227.709854 300.000000,233.532394 
z"/>
<path fill="#32638E" opacity="1.000000" stroke="none" 
	d="
M74.979118,89.928169 
	C82.194298,90.545937 89.400307,91.509789 96.626785,91.701439 
	C107.837784,91.998741 119.062737,91.767731 130.281769,91.764633 
	C139.753174,91.762016 149.224670,91.740616 158.695938,91.775963 
	C163.300262,91.793144 167.905273,92.021652 172.507965,91.971085 
	C177.273026,91.918747 182.034302,91.571648 186.799637,91.482124 
	C196.836197,91.293594 206.874893,91.052147 216.911606,91.095024 
	C224.490540,91.127396 232.066193,91.635895 239.646149,91.805206 
	C246.108398,91.949539 252.574631,91.936600 259.039185,91.950676 
	C272.410583,91.979790 285.782074,91.980568 299.576752,91.996506 
	C300.000000,99.687576 300.000000,107.375153 299.531891,115.531372 
	C281.432800,115.668228 263.801849,115.336449 246.176422,114.638397 
	C247.618515,110.039627 249.055084,105.807129 250.405762,101.827682 
	C245.094788,104.712685 240.148224,107.399734 234.865448,109.959824 
	C229.760071,109.854523 224.988419,109.984497 220.222275,109.874886 
	C210.811600,109.658432 201.402267,109.022079 191.995514,109.078911 
	C175.775604,109.176895 159.559174,109.770485 143.338989,109.945206 
	C137.884293,110.003975 132.321365,108.615723 126.983742,109.287010 
	C112.559685,111.101082 98.224487,109.793686 83.840088,109.343826 
	C76.961411,109.128693 70.056381,109.756302 62.997765,109.681152 
	C60.178169,103.586678 57.524101,97.813255 55.275558,92.022675 
	C60.522442,91.115852 65.363800,90.226204 70.610199,89.345230 
	C72.336533,89.545334 73.657822,89.736755 74.979118,89.928169 
z"/>
<path fill="#29567D" opacity="1.000000" stroke="none" 
	d="
M300.000000,216.532394 
	C294.060638,217.005173 288.120331,216.945709 282.182159,217.033035 
	C275.743958,217.127686 269.306946,217.504379 262.871094,217.467010 
	C259.845734,217.449448 256.820953,216.773529 253.803085,216.345505 
	C252.856506,216.211273 251.861542,215.565613 251.010178,215.741608 
	C239.514175,218.117981 228.054337,217.716568 216.399048,216.642471 
	C207.836441,215.853378 199.088272,217.202835 190.418289,217.413986 
	C183.554642,217.581146 176.683395,217.407242 169.816910,217.494019 
	C162.734238,217.583542 155.649277,218.031601 148.572556,217.908188 
	C140.770935,217.772156 132.981125,216.976105 125.179298,216.827225 
	C119.784653,216.724274 114.377548,217.435974 108.977486,217.414352 
	C102.101753,217.386841 95.227310,216.992004 88.352859,216.740494 
	C87.374435,216.704681 86.398666,216.508926 85.422424,216.514801 
	C76.574875,216.568085 67.727310,216.632553 58.880169,216.731995 
	C55.576168,216.769119 52.273499,216.977646 48.969891,216.986603 
	C37.075260,217.018860 25.179659,216.920258 13.286255,217.045227 
	C9.479547,217.085220 5.678512,217.665207 1.437441,217.999054 
	C1.000000,213.975449 1.000000,209.950912 1.403881,205.427979 
	C10.421180,202.025940 19.185539,203.725967 27.926413,203.942825 
	C37.657085,204.184235 47.401329,204.118683 57.134678,203.929810 
	C63.882236,203.798874 70.621361,203.233154 77.620522,203.057648 
	C84.890030,212.527420 94.511505,214.135101 105.219887,212.565460 
	C116.255211,210.947891 125.248184,205.173813 134.134399,198.803772 
	C135.555038,199.362534 136.657196,199.892487 137.765137,199.904800 
	C145.863220,199.994873 153.964340,200.101608 162.060913,199.974228 
	C177.620636,199.729431 193.178146,199.061646 208.736237,199.072433 
	C226.124542,199.084473 243.511368,199.745361 260.900909,199.953125 
	C273.932251,200.108810 286.966858,199.994232 300.000000,200.000000 
	C300.000000,205.354935 300.000000,210.709854 300.000000,216.532394 
z"/>
<path fill="#2D5C85" opacity="1.000000" stroke="none" 
	d="
M300.000000,142.000000 
	C300.000000,152.020889 300.000000,162.041794 299.532196,172.531342 
	C249.757080,173.335358 200.449768,173.670715 151.179840,173.652130 
	C153.098450,168.504547 155.191437,163.779724 156.780609,158.891129 
	C157.718826,156.005035 159.339935,154.606506 162.178452,153.854385 
	C178.400528,149.555939 194.619370,145.238754 210.774796,140.698395 
	C217.524612,138.801422 224.115524,136.339111 231.570374,133.871826 
	C229.824493,138.281494 228.150726,141.852844 227.063431,145.594604 
	C226.657684,146.990875 227.621063,148.784988 227.960144,150.397690 
	C229.426788,149.440842 231.275589,148.773163 232.269989,147.458969 
	C233.741348,145.514420 234.606049,143.110825 236.145523,140.997467 
	C239.358765,141.360062 242.159729,141.890167 244.951477,141.845490 
	C252.734039,141.721008 260.514130,141.107803 268.292664,141.150589 
	C278.863007,141.208710 289.431000,141.696487 300.000000,142.000000 
z"/>
<path fill="#2A5880" opacity="1.000000" stroke="none" 
	d="
M151.142456,174.006073 
	C200.449768,173.670715 249.757080,173.335358 299.532196,173.000000 
	C300.000000,181.687561 300.000000,190.375137 300.000000,199.531342 
	C286.966858,199.994232 273.932251,200.108810 260.900909,199.953125 
	C243.511368,199.745361 226.124542,199.084473 208.736237,199.072433 
	C193.178146,199.061646 177.620636,199.729431 162.060913,199.974228 
	C153.964340,200.101608 145.863220,199.994873 137.765137,199.904800 
	C136.657196,199.892487 135.555038,199.362534 134.277863,198.517853 
	C139.784500,189.977646 145.463486,181.991867 151.142456,174.006073 
z"/>
<path fill="#396D9C" opacity="1.000000" stroke="none" 
	d="
M300.000000,22.539364 
	C283.127167,22.798820 266.252869,22.360964 249.381851,22.463144 
	C232.569733,22.564968 215.762573,23.331621 198.949875,23.560677 
	C190.976501,23.669304 182.995956,23.063112 175.017563,23.028059 
	C155.465378,22.942158 135.912033,23.083994 116.360168,22.966358 
	C105.763535,22.902605 95.166245,22.220608 84.574303,22.325871 
	C75.368797,22.417353 66.174614,23.489780 56.967628,23.635357 
	C48.673439,23.766504 40.370026,23.113321 32.068203,23.014647 
	C21.996630,22.894936 11.922457,22.994097 1.424704,22.999279 
	C1.000000,18.310745 1.000000,13.621490 1.395899,8.499647 
	C8.181315,8.379516 14.567925,8.785028 20.960964,8.984776 
	C33.703140,9.382899 46.448368,9.688224 59.193317,9.990415 
	C64.757660,10.122349 70.329872,10.341033 75.888702,10.180580 
	C82.801422,9.981050 89.704529,9.098587 96.610847,9.109380 
	C106.661339,9.125086 116.709602,9.887862 126.761284,9.953239 
	C148.652115,10.095618 170.544525,9.998891 192.436279,9.999510 
	C207.007614,9.999922 221.580368,10.126678 236.149841,9.962176 
	C249.352020,9.813113 262.552612,9.043405 275.750000,9.131501 
	C283.837128,9.185486 291.916931,10.339811 300.000000,11.000000 
	C300.000000,14.692909 300.000000,18.385818 300.000000,22.539364 
z"/>
<path fill="#2C5B84" opacity="1.000000" stroke="none" 
	d="
M1.000000,181.000000 
	C1.000000,168.979111 1.000000,156.958206 1.392252,144.500809 
	C4.904144,144.046417 8.025339,143.956329 11.143148,144.023468 
	C23.152683,144.281998 35.159996,144.699600 47.170574,144.825485 
	C51.750881,144.873505 56.337746,144.295670 61.062920,144.444061 
	C61.204220,148.521103 61.204220,152.157150 61.204220,155.793213 
	C61.586151,155.849686 61.968079,155.906158 62.350010,155.962631 
	C63.173588,153.952255 63.997166,151.941895 65.297836,149.944763 
	C70.563011,150.401718 75.351105,150.845444 80.120155,151.651886 
	C77.625214,161.678162 75.149300,171.341721 72.264091,181.006836 
	C55.671803,181.005600 39.488804,181.002396 23.305809,181.000168 
	C15.870540,180.999146 8.435269,181.000000 1.000000,181.000000 
z"/>
<path fill="#3A6F9E" opacity="1.000000" stroke="none" 
	d="
M300.000000,10.513435 
	C291.916931,10.339811 283.837128,9.185486 275.750000,9.131501 
	C262.552612,9.043405 249.352020,9.813113 236.149841,9.962176 
	C221.580368,10.126678 207.007614,9.999922 192.436279,9.999510 
	C170.544525,9.998891 148.652115,10.095618 126.761284,9.953239 
	C116.709602,9.887862 106.661339,9.125086 96.610847,9.109380 
	C89.704529,9.098587 82.801422,9.981050 75.888702,10.180580 
	C70.329872,10.341033 64.757660,10.122349 59.193317,9.990415 
	C46.448368,9.688224 33.703140,9.382899 20.960964,8.984776 
	C14.567925,8.785028 8.181315,8.379516 1.395899,8.033529 
	C1.000000,5.670166 1.000000,3.340332 1.000000,1.015338 
	C100.666672,1.020178 200.333344,1.020178 300.000000,1.020178 
	C300.000000,4.035861 300.000000,7.031366 300.000000,10.513435 
z"/>
<path fill="#30608B" opacity="1.000000" stroke="none" 
	d="
M60.921623,144.003067 
	C56.337746,144.295670 51.750881,144.873505 47.170574,144.825485 
	C35.159996,144.699600 23.152683,144.281998 11.143148,144.023468 
	C8.025339,143.956329 4.904144,144.046417 1.392252,144.032150 
	C1.000000,130.645767 1.000000,117.291542 1.468452,103.468521 
	C16.536690,103.335709 31.136475,103.671677 45.846184,104.392075 
	C47.603828,109.087021 49.254223,113.396515 50.898705,117.708267 
	C54.241367,126.472557 57.580837,135.238068 60.921623,144.003067 
z"/>
<path fill="#2A577F" opacity="1.000000" stroke="none" 
	d="
M1.000000,181.468628 
	C8.435269,181.000000 15.870540,180.999146 23.305809,181.000168 
	C39.488804,181.002396 55.671803,181.005600 72.323380,181.463470 
	C72.407112,189.316360 73.875038,196.309662 77.364258,202.861694 
	C70.621361,203.233154 63.882236,203.798874 57.134678,203.929810 
	C47.401329,204.118683 37.657085,204.184235 27.926413,203.942825 
	C19.185539,203.725967 10.421180,202.025940 1.403881,204.964813 
	C1.000000,197.312424 1.000000,189.624832 1.000000,181.468628 
z"/>
<path fill="#336591" opacity="1.000000" stroke="none" 
	d="
M45.736259,104.007645 
	C31.136475,103.671677 16.536690,103.335709 1.468452,102.999863 
	C1.000000,91.645775 1.000000,80.291542 1.000000,68.468658 
	C11.732585,68.327446 22.465651,68.640068 33.197582,68.987595 
	C40.258915,69.216248 47.318619,69.495186 54.553169,70.173836 
	C52.902008,72.435249 50.574780,73.989319 49.339626,76.163727 
	C44.382515,84.890442 44.797573,94.443695 45.736259,104.007645 
z"/>
<path fill="#306089" opacity="1.000000" stroke="none" 
	d="
M300.000000,141.531342 
	C289.431000,141.696487 278.863007,141.208710 268.292664,141.150589 
	C260.514130,141.107803 252.734039,141.721008 244.951477,141.845490 
	C242.159729,141.890167 239.358765,141.360062 236.201141,140.631653 
	C239.283798,131.782227 242.727341,123.393440 246.170868,115.004669 
	C263.801849,115.336449 281.432800,115.668228 299.531891,116.000000 
	C300.000000,124.354233 300.000000,132.708466 300.000000,141.531342 
z"/>
<path fill="#FCFCFD" opacity="1.000000" stroke="none" 
	d="
M45.846184,104.392075 
	C44.797573,94.443695 44.382515,84.890442 49.339626,76.163727 
	C50.574780,73.989319 52.902008,72.435249 54.947472,70.330658 
	C61.734821,69.961578 68.301994,69.857887 75.297897,69.737228 
	C77.074646,70.254372 78.422653,70.788498 80.269356,71.520210 
	C78.587044,77.432114 76.907059,83.335831 75.103104,89.583862 
	C73.657822,89.736755 72.336533,89.545334 70.246056,89.210678 
	C65.261780,88.742226 61.048923,88.214684 56.830738,88.167923 
	C54.311646,88.139999 52.493580,89.218246 54.870029,92.039841 
	C57.524101,97.813255 60.178169,103.586678 63.033756,110.028450 
	C65.139366,114.797775 67.043465,118.898750 68.938156,123.463272 
	C70.397202,133.043350 66.721672,141.347275 64.820747,149.931534 
	C63.997166,151.941895 63.173588,153.952255 62.350010,155.962631 
	C61.968079,155.906158 61.586151,155.849686 61.204220,155.793213 
	C61.204220,152.157150 61.204220,148.521103 61.062920,144.444061 
	C57.580837,135.238068 54.241367,126.472557 50.898705,117.708267 
	C49.254223,113.396515 47.603828,109.087021 45.846184,104.392075 
z"/>
<path fill="#FCFCFD" opacity="1.000000" stroke="none" 
	d="
M246.176407,114.638397 
	C242.727341,123.393440 239.283798,131.782227 235.784637,140.536835 
	C234.606049,143.110825 233.741348,145.514420 232.269989,147.458969 
	C231.275589,148.773163 229.426788,149.440842 227.960144,150.397690 
	C227.621063,148.784988 226.657684,146.990875 227.063431,145.594604 
	C228.150726,141.852844 229.824493,138.281494 231.570374,133.871826 
	C224.115524,136.339111 217.524612,138.801422 210.774796,140.698395 
	C194.619370,145.238754 178.400528,149.555939 162.178452,153.854385 
	C159.339935,154.606506 157.718826,156.005035 156.780609,158.891129 
	C155.191437,163.779724 153.098450,168.504547 151.179840,173.652130 
	C145.463486,181.991867 139.784500,189.977646 133.962067,198.249374 
	C125.248184,205.173813 116.255211,210.947891 105.219887,212.565460 
	C94.511505,214.135101 84.890030,212.527420 77.620522,203.057648 
	C73.875038,196.309662 72.407112,189.316360 72.732681,181.461914 
	C75.149300,171.341721 77.625214,161.678162 80.400314,151.429092 
	C84.225204,143.517319 87.169945,135.856949 91.958061,129.256683 
	C92.613678,129.570221 93.269287,129.883743 93.924904,130.197266 
	C91.608330,135.462234 89.291756,140.727203 86.705078,146.221497 
	C84.400803,152.378128 81.727448,158.173584 80.471703,164.261459 
	C78.183121,175.356461 84.534050,182.980713 95.793411,183.968506 
	C113.954002,185.561768 129.839371,180.016403 143.756073,168.612091 
	C145.351501,167.304688 146.656296,164.428253 146.486847,162.414749 
	C146.023254,156.906342 144.700317,151.470245 143.716782,145.632019 
	C141.556442,140.776886 142.222168,136.517334 144.410675,132.201096 
	C145.731689,129.595734 146.556427,126.738739 147.778732,123.658363 
	C149.374603,119.940262 150.795914,116.558609 152.602982,112.259148 
	C154.396378,116.619102 155.761398,119.984367 157.163345,123.334183 
	C158.945938,127.593506 161.825119,129.374512 166.621750,128.216949 
	C174.679932,126.272263 182.921631,125.044128 190.913284,122.877106 
	C205.741837,118.856171 220.445801,114.375816 235.201645,110.086777 
	C240.148224,107.399734 245.094788,104.712685 250.405762,101.827682 
	C249.055084,105.807129 247.618515,110.039627 246.176407,114.638397 
z"/>
<path fill="#30608B" opacity="1.000000" stroke="none" 
	d="
M234.865448,109.959824 
	C220.445801,114.375816 205.741837,118.856171 190.913284,122.877106 
	C182.921631,125.044128 174.679932,126.272263 166.621750,128.216949 
	C161.825119,129.374512 158.945938,127.593506 157.163345,123.334183 
	C155.761398,119.984367 154.396378,116.619102 152.602982,112.259148 
	C150.795914,116.558609 149.374603,119.940262 147.376862,123.658859 
	C140.596588,123.778687 134.392685,123.380447 128.188934,123.382332 
	C115.451332,123.386200 102.713661,123.710526 89.976318,123.692337 
	C82.966415,123.682327 75.957123,123.244606 68.947556,122.999725 
	C67.043465,118.898750 65.139366,114.797775 63.199280,110.349510 
	C70.056381,109.756302 76.961411,109.128693 83.840088,109.343826 
	C98.224487,109.793686 112.559685,111.101082 126.983742,109.287010 
	C132.321365,108.615723 137.884293,110.003975 143.338989,109.945206 
	C159.559174,109.770485 175.775604,109.176895 191.995514,109.078911 
	C201.402267,109.022079 210.811600,109.658432 220.222275,109.874886 
	C224.988419,109.984497 229.760071,109.854523 234.865448,109.959824 
z"/>
<path fill="#336591" opacity="1.000000" stroke="none" 
	d="
M55.275558,92.022675 
	C52.493580,89.218246 54.311646,88.139999 56.830738,88.167923 
	C61.048923,88.214684 65.261780,88.742226 69.841019,89.201996 
	C65.363800,90.226204 60.522442,91.115852 55.275558,92.022675 
z"/>
<path fill="#306089" opacity="1.000000" stroke="none" 
	d="
M68.938156,123.463272 
	C75.957123,123.244606 82.966415,123.682327 89.976318,123.692337 
	C102.713661,123.710526 115.451332,123.386200 128.188934,123.382332 
	C134.392685,123.380447 140.596588,123.778687 147.202301,123.995308 
	C146.556427,126.738739 145.731689,129.595734 144.410675,132.201096 
	C142.222168,136.517334 141.556442,140.776886 143.266113,145.632324 
	C124.202606,146.001480 105.588890,145.996826 86.975189,145.992172 
	C89.291756,140.727203 91.608330,135.462234 93.924904,130.197266 
	C93.269287,129.883743 92.613678,129.570221 91.958061,129.256683 
	C87.169945,135.856949 84.225204,143.517319 80.419350,151.066376 
	C75.351105,150.845444 70.563011,150.401718 65.297836,149.944763 
	C66.721672,141.347275 70.397202,133.043350 68.938156,123.463272 
z"/>
<path fill="#2D5C85" opacity="1.000000" stroke="none" 
	d="
M86.705070,146.221497 
	C105.588890,145.996826 124.202606,146.001480 143.266998,146.005829 
	C144.700317,151.470245 146.023254,156.906342 146.486847,162.414749 
	C146.656296,164.428253 145.351501,167.304688 143.756073,168.612091 
	C129.839371,180.016403 113.954002,185.561768 95.793411,183.968506 
	C84.534050,182.980713 78.183121,175.356461 80.471703,164.261459 
	C81.727448,158.173584 84.400803,152.378128 86.705070,146.221497 
z"/>
</svg>